HIERARCHY
ROOT Hips
{
 OFFSET 0.000000 0.000000 0.000000
 CHANNELS 6 Xposition Yposition Zposition Yrotation Xrotation Zrotation
 JOINT Chest
 {
  OFFSET 0.000000 10.354800 0.006500
  CHANNELS 3 Yrotation Xrotation Zrotation
  JOINT Chest2
  {
   OFFSET 0.000000 10.435800 -0.013200
   CHANNELS 3 Yrotation Xrotation Zrotation
   JOINT Chest3
   {
    OFFSET 0.000000 10.393700 0.000000
    CHANNELS 3 Yrotation Xrotation Zrotation
    JOINT Chest4
    {
     OFFSET 0.000000 10.383100 0.000000
     CHANNELS 3 Yrotation Xrotation Zrotation
     JOINT Neck
     {
      OFFSET 0.000000 15.694000 0.000000
      CHANNELS 3 Yrotation Xrotation Zrotation
      JOINT Head
      {
       OFFSET 0.000000 9.711000 -0.028000
       CHANNELS 3 Yrotation Xrotation Zrotation
       End Site
       {
        OFFSET 0.000000 18.578700 -0.014800
       }
      }
     }
     JOINT RightCollar
     {
      OFFSET -3.157200 10.367500 0.000000
      CHANNELS 3 Yrotation Xrotation Zrotation
      JOINT RightShoulder
      {
       OFFSET -14.482500 0.000000 0.000000
       CHANNELS 3 Yrotation Xrotation Zrotation
       JOINT RightElbow
       {
        OFFSET 0.000000 -31.707800 0.000000
        CHANNELS 3 Yrotation Xrotation Zrotation
        JOINT RightWrist
        {
         OFFSET 0.000000 -25.659300 0.000000
         CHANNELS 3 Yrotation Xrotation Zrotation
         End Site
         {
          OFFSET 0.000000 -18.994300 0.000000
         }
        }
       }
      }
     }
     JOINT LeftCollar
     {
      OFFSET 3.157200 10.367500 0.000000
      CHANNELS 3 Yrotation Xrotation Zrotation
      JOINT LeftShoulder
      {
       OFFSET 14.482500 0.000000 0.000000
       CHANNELS 3 Yrotation Xrotation Zrotation
       JOINT LeftElbow
       {
        OFFSET 0.000000 -31.707800 0.000000
        CHANNELS 3 Yrotation Xrotation Zrotation
        JOINT LeftWrist
        {
         OFFSET 0.000000 -25.659300 0.000000
         CHANNELS 3 Yrotation Xrotation Zrotation
         End Site
         {
          OFFSET 0.000000 -18.994300 0.000000
         }
        }
       }
      }
     }
    }
   }
  }
 }
 JOINT RightHip
 {
  OFFSET -8.365600 -0.032100 -0.003200
  CHANNELS 3 Yrotation Xrotation Zrotation
  JOINT RightKnee
  {
   OFFSET 0.000000 -43.980000 0.003100
   CHANNELS 3 Yrotation Xrotation Zrotation
   JOINT RightAnkle
   {
    OFFSET 0.000000 -42.882800 0.005200
    CHANNELS 3 Yrotation Xrotation Zrotation
    JOINT RightToe
    {
     OFFSET 0.000000 -4.915500 10.826300
     CHANNELS 3 Yrotation Xrotation Zrotation
     End Site
     {
      OFFSET 0.000000 -1.517500 6.175900
     }
    }
   }
  }
 }
 JOINT LeftHip
 {
  OFFSET 8.365600 -0.032100 -0.003200
  CHANNELS 3 Yrotation Xrotation Zrotation
  JOINT LeftKnee
  {
   OFFSET 0.000000 -43.980000 0.003100
   CHANNELS 3 Yrotation Xrotation Zrotation
   JOINT LeftAnkle
   {
    OFFSET 0.000000 -42.882800 0.005200
    CHANNELS 3 Yrotation Xrotation Zrotation
    JOINT LeftToe
    {
     OFFSET 0.000000 -4.915500 10.826300
     CHANNELS 3 Yrotation Xrotation Zrotation
     End Site
     {
      OFFSET 0.000000 -1.517500 6.175900
     }
    }
   }
  }
 }
}
MOTION
Frames: 6
Frame Time: 0.008333
0.000000 91.618600 0.000000 0.000000 -5.767877 0.000000 0.000000 11.653817 0.000000 0.000000 -5.885947 0.000000 0.000000 -0.000000 0.000000 0.000000 -0.000000 0.000000 0.000000 12.528835 0.000000 0.000000 0.711642 0.000000 0.000000 -0.000000 0.000000 0.000000 0.000000 -90.000000 0.000000 -2.309062 0.000000 0.000000 2.309062 0.000000 0.000000 -0.000000 0.000000 0.000000 -0.000000 90.000000 0.000000 -2.309062 0.000000 0.000000 2.309062 0.000000 0.000000 8.520406 0.000000 0.000000 1.905762 0.000000 -0.000000 -4.658285 0.000000 0.000000 -0.000000 0.000000 0.000000 8.520406 0.000000 0.000000 1.905762 0.000000 -0.000000 -4.658285 0.000000 0.000000 -0.000000 0.000000
-13.086930 147.097934 26.848014 178.541049 -19.239748 -3.179602 -1.714118 11.408904 3.355035 -0.124122 0.852467 0.279130 -0.283787 1.417484 0.442083 -1.565170 10.470329 3.233212 -2.651030 17.979630 -2.287642 -2.263596 -6.759899 -1.808094 4.351312 5.478524 -3.471078 13.910515 -10.896024 -6.171905 59.540533 -39.267479 -52.589328 -4.846972 4.403071 -14.905242 -2.840079 8.004534 0.982255 -10.655738 -15.321111 -1.455827 -59.684558 -40.811059 53.937902 -11.825295 -0.477814 14.196512 9.842485 -59.358504 -10.523319 -141.236762 76.296491 -135.409300 -1.017112 -21.382444 3.820486 0.044489 -0.156499 0.014725 -16.501290 -60.470673 11.392525 115.013852 76.256437 113.429679 0.989937 -16.315478 -3.664964 0.034667 0.132626 -0.028134
-11.654006 140.559042 27.233163 178.591403 -19.219961 -3.256455 -1.713420 11.413533 3.440994 -0.113965 0.854722 0.281644 -0.291102 1.409830 0.444018 -1.550587 10.454761 3.253029 -2.654926 17.964297 -2.282495 -2.289847 -6.770898 -1.810832 4.326225 5.506200 -3.487302 13.889969 -10.844558 -5.967922 59.388795 -39.271334 -52.635640 -4.908101 4.138806 -15.123188 -2.839706 8.021723 0.972337 -10.648523 -15.342237 -1.482912 -59.482210 -40.863153 53.710768 -11.642060 -0.727195 14.386422 9.771662 -59.385388 -10.478151 -141.340613 76.287631 -135.489635 -0.993146 -21.466151 3.826884 0.012269 -0.089438 0.005565 -16.633313 -60.467397 11.480615 114.964300 76.255218 113.394554 0.983495 -16.265001 -3.643512 0.023506 0.056679 0.010680
-10.479619 135.171426 27.554188 178.642343 -19.168348 -3.297010 -1.694497 11.398382 3.500234 -0.139140 0.836560 0.273205 -0.289057 1.406787 0.448591 -1.564067 10.439472 3.256420 -2.649676 17.958530 -2.276355 -2.292044 -6.779056 -1.803821 4.308284 5.514814 -3.496071 13.828125 -10.774578 -5.748773 59.227228 -39.373591 -52.685708 -4.992666 3.895875 -15.146628 -2.851008 8.026363 0.963658 -10.508171 -15.327422 -1.509547 -59.383752 -40.957826 53.488293 -11.456764 -0.965353 14.599274 9.767102 -59.435092 -10.508245 -141.403937 76.274455 -135.533380 -0.987669 -21.505946 3.835003 0.004475 -0.057423 0.002031 -16.636646 -60.513663 11.416318 114.814774 76.229037 113.304238 0.997579 -16.249598 -3.641114 0.010161 0.043705 0.004616
-9.629035 131.280836 27.781722 178.683950 -19.143084 -3.346842 -1.718279 11.381097 3.542339 -0.120894 0.844901 0.278845 -0.277690 1.409048 0.454571 -1.578892 10.424679 3.260984 -2.667131 17.954426 -2.282729 -2.271013 -6.779408 -1.786854 4.314497 5.548686 -3.490759 13.674653 -10.733806 -5.553299 59.048077 -39.575568 -52.703165 -5.053677 3.670725 -15.039906 -2.837079 8.049723 0.955416 -10.460213 -15.328502 -1.512308 -59.237252 -41.076560 53.285517 -11.278256 -1.191714 14.794396 9.701597 -59.464986 -10.468016 -141.409948 76.259983 -135.548060 -0.980209 -21.547051 3.851810 -0.003330 -0.024886 -0.001512 -16.708510 -60.525633 11.448699 114.791933 76.232199 113.297016 1.012153 -16.226533 -3.635979 0.007893 0.017238 0.003584
-9.096799 128.822343 27.923962 178.710343 -19.118126 -3.357695 -1.706867 11.374734 3.562048 -0.124858 0.841397 0.276554 -0.272002 1.408157 0.460121 -1.538565 10.413246 3.298098 -2.711203 17.948254 -2.290768 -2.295779 -6.780264 -1.788919 4.249543 5.599404 -3.477541 13.477757 -10.722004 -5.408740 58.871300 -39.860784 -52.682261 -5.092133 3.471534 -14.839340 -2.895638 8.067172 0.917853 -10.421218 -15.321317 -1.510421 -59.083757 -41.214583 53.117198 -11.112045 -1.407893 14.938512 9.797765 -59.473992 -10.562234 -141.420179 76.244653 -135.523240 -0.985532 -21.566856 3.864931 -0.004338 -0.017745 -0.001969 -16.663383 -60.555693 11.371647 114.739165 76.226876 113.267123 1.020975 -16.226054 -3.611627 0.000004 0.010178 0.000002
